Coordinates
version=1
nRows=16
nColumns=42
inDegrees=yes

Units are S.I. units (second, meters, Newtons, ...)
If the header above contains a line with 'inDegrees', this indicates whether rotational values are in degrees (yes) or radians (no).

endheader
time	pelvis_tilt	pelvis_list	pelvis_rotation	pelvis_tx	pelvis_ty	pelvis_tz	hip_flexion_r	hip_adduction_r	hip_rotation_r	knee_angle_r	knee_adduction_r	knee_angle_r_beta	ankle_angle_r	subtalar_angle_r	mtp_angle_r	hip_flexion_l	hip_adduction_l	hip_rotation_l	knee_angle_l	knee_adduction_l	knee_angle_l_beta	ankle_angle_l	subtalar_angle_l	mtp_angle_l	lumbar_extension	lumbar_bending	lumbar_rotation	arm_flex_r	arm_add_r	arm_rot_r	elbow_flex_r	pro_sup_r	wrist_flex_r	wrist_dev_r	arm_flex_l	arm_add_l	arm_rot_l	elbow_flex_l	pro_sup_l	wrist_flex_l	wrist_dev_l
      2.90000000	      8.41737099	      7.13644987	     20.67854808	      0.67016413	      0.90114298	      0.50909643	     -2.68466173	     -0.75716899	    -28.69007620	     24.49994047	     -2.42337762	      0.42760463	     19.61735660	      5.82593067	     -7.50491086	     25.56384715	     -9.45457612	     -2.88959470	     30.80605250	      4.51860189	      0.53766705	      7.12827328	     15.34059307	     -7.50491086	    -26.47957643	     -7.84628786	     -5.25057162	     -7.84348328	    -27.34332559	    -48.39662528	     64.66733387	     90.00000001	      0.00000000	      0.00000000	      5.13892435	    -21.41392048	     12.43627412	     87.22825156	     90.00000001	      0.00000000	      0.00000000
      2.91000000	      8.87175523	      7.21522606	     20.19540603	      0.67268492	      0.90116966	      0.50908627	     -3.36633908	     -0.71508932	    -28.63669913	     24.42474378	     -2.42156191	      0.42629220	     20.15486072	      6.15128443	     -7.50476489	     26.06218197	     -9.23863271	     -3.04452971	     31.22687564	      4.46528713	      0.54501180	      7.09926623	     15.48623914	     -7.50476489	    -26.72277874	     -7.82632748	     -5.01721232	     -7.58808119	    -27.67997670	    -47.22440868	     65.99045157	     90.00000001	      0.00000000	      0.00000000	      4.57598358	    -21.21991475	     11.96147271	     87.49819264	     90.00000001	      0.00000000	      0.00000000
      2.92000000	      9.20011784	      7.25445704	     19.71793378	      0.67523261	      0.90101588	      0.50913315	     -3.81672501	     -0.70974900	    -28.55131289	     24.54889186	     -2.43958180	      0.42845899	     20.42145244	      6.48391308	     -7.50460257	     26.61353502	     -8.98695201	     -2.94316875	     31.53463954	      4.49589424	      0.55038329	      7.10625031	     15.60178812	     -7.50460257	    -26.83684803	     -7.85183393	     -4.66857962	     -7.56975433	    -27.96527802	    -46.12731652	     67.04094631	     90.00000001	      0.00000000	      0.00000000	      4.07398100	    -20.99675529	     11.57842077	     87.75583187	     90.00000001	      0.00000000	      0.00000000
      2.93000000	      9.39117222	      7.27460424	     19.21802755	      0.67779015	      0.90075653	      0.50919513	     -4.05626840	     -0.72907085	    -28.24484423	     24.78265286	     -2.45491808	      0.43253889	     20.29848035	      6.52569523	     -7.50454472	     27.19368416	     -8.68766806	     -2.78885798	     31.68883736	      4.54692349	      0.55307455	      7.03314751	     15.54241233	     -7.50454472	    -26.79780947	     -7.92341484	     -4.14486464	     -7.33939815	    -28.01206435	    -45.86012665	     67.20956030	     90.00000001	      0.00000000	      0.00000000	      3.84935536	    -20.92866940	     11.56812464	     87.68546641	     90.00000001	      0.00000000	      0.00000000
      2.94000000	      9.80468860	      7.24081374	     18.74585728	      0.68036956	      0.90053653	      0.50912130	     -4.59417823	     -0.60196650	    -28.09210583	     24.84146803	     -2.47701626	      0.43356541	     20.76133147	      6.59537829	     -7.50443948	     27.68868024	     -8.53439130	     -2.42726964	     32.18322920	      4.72268581	      0.56170331	      7.01735662	     15.41277366	     -7.50443948	    -26.96846480	     -7.79906109	     -3.90878892	     -6.96092820	    -28.18848216	    -44.94762213	     68.32523735	     90.00000001	      0.00000000	      0.00000000	      3.23128290	    -20.75237580	     11.44476655	     87.79594833	     90.00000001	      0.00000000	      0.00000000
      2.95000000	      9.99461555	      7.24148595	     18.19398283	      0.68303471	      0.90017840	      0.50916561	     -4.81628162	     -0.61862966	    -27.76349475	     25.08544118	     -2.51498923	      0.43782354	     20.66758781	      6.63783582	     -7.50437751	     28.20184122	     -8.24577653	     -2.18463587	     32.39931029	      4.77612114	      0.56547464	      6.93739392	     15.34532295	     -7.50437751	    -26.89450901	     -7.86834456	     -3.38120384	     -6.74062624	    -28.21549321	    -44.60482434	     68.58395528	     90.00000001	      0.00000000	      0.00000000	      2.90762967	    -20.64004972	     11.44360696	     87.73371047	     90.00000001	      0.00000000	      0.00000000
      2.96000000	     10.31904338	      7.10434962	     17.80059986	      0.68564618	      0.89969145	      0.50901516	     -5.21831043	     -0.37133047	    -27.49937471	     25.16322541	     -2.57816690	      0.43918113	     21.34666832	      6.81294307	     -7.50419443	     28.69244850	     -8.14380364	     -1.40085487	     32.76527019	      5.21083084	      0.57186185	      7.00103080	     14.82123355	     -7.50419443	    -26.95772942	     -7.59990533	     -3.29995924	     -7.04822290	    -28.47786536	    -42.66861723	     70.82197599	     90.00000001	      0.00000000	      0.00000000	      1.99226046	    -20.46819403	     10.92089571	     88.23730229	     90.00000001	      0.00000000	      0.00000000
      2.97000000	     10.48807949	      7.06563409	     17.30660104	      0.68830370	      0.89920467	      0.50889606	     -5.40696566	     -0.36871572	    -27.18702925	     25.43739311	     -2.60650135	      0.44396626	     21.21091874	      6.84165351	     -7.50413846	     29.16006962	     -7.86854728	     -1.20636280	     32.95893608	      5.26088965	      0.57524195	      6.90766824	     14.75758235	     -7.50413846	    -26.87473096	     -7.59306898	     -2.81002557	     -6.84431752	    -28.44834387	    -42.38171334	     70.97263914	     90.00000001	      0.00000000	      0.00000000	      1.71543587	    -20.36256324	     10.94292006	     88.13356660	     90.00000001	      0.00000000	      0.00000000
      2.98000000	     10.80314017	      6.80444199	     16.95513874	      0.69094099	      0.89858576	      0.50868195	     -5.76741352	      0.00904891	    -27.02947362	     25.48981763	     -2.70154272	      0.44488124	     21.74696274	      6.78667506	     -7.50404813	     29.67346028	     -7.88954859	     -0.36916959	     33.40844942	      5.71302615	      0.58308744	      6.80912136	     14.47924954	     -7.50404813	    -26.87280181	     -7.19097307	     -2.70921153	     -6.46909448	    -28.47642247	    -41.24704179	     72.29553623	     90.00000001	      0.00000000	      0.00000000	      0.96875535	    -20.19080417	     10.97208149	     88.01442036	     90.00000001	      0.00000000	      0.00000000
      2.99000000	     10.96367841	      6.73246375	     16.49332941	      0.69376390	      0.89799428	      0.50850399	     -5.98049122	      0.05022151	    -26.78965832	     25.71314494	     -2.75258527	      0.44877904	     21.68741979	      6.81361206	     -7.50400869	     30.03791961	     -7.64128704	     -0.14016425	     33.55013455	      5.75915393	      0.58556031	      6.74316398	     14.41515962	     -7.50400869	    -26.75897941	     -7.14624430	     -2.24221787	     -6.32181884	    -28.37723593	    -40.92100326	     72.51161231	     90.00000001	      0.00000000	      0.00000000	      0.60907935	    -20.03183496	     11.03305087	     87.93230004	     90.00000001	      0.00000000	      0.00000000
      3.00000000	     11.09997390	      6.38386255	     16.20917395	      0.69653171	      0.89712583	      0.50818672	     -6.14417645	      0.50534260	    -26.41619461	     25.76565584	     -2.82320292	      0.44969553	     22.26776957	      6.76170417	     -7.50390176	     30.58649811	     -7.68477367	      0.75752332	     33.82901289	      6.26691002	      0.59042766	      6.68320984	     13.87652702	     -7.50390176	    -26.55104501	     -6.68500277	     -2.22845829	     -6.23669775	    -28.39226868	    -39.22042008	     74.34175665	     90.00000001	      0.00000000	      0.00000000	     -0.21188909	    -19.92056391	     10.96932870	     87.82096814	     90.00000001	      0.00000000	      0.00000000
      3.01000000	     11.23265710	      6.22091320	     15.84181199	      0.69938354	      0.89639564	      0.50779190	     -6.33796631	      0.63452398	    -26.17110462	     25.96096927	     -2.83549009	      0.45310439	     22.39777258	      6.70469254	     -7.50371271	     30.87976888	     -7.51355214	      1.34950483	     33.87381745	      6.56645429	      0.59120964	      6.53621729	     12.89807189	     -7.50371271	    -26.41778476	     -6.45429553	     -1.95239384	     -6.85431201	    -28.74539414	    -37.21363619	     75.79635623	     90.00000001	      0.00000000	      0.00000000	     -0.81965568	    -19.55220116	     10.79492538	     87.84516145	     90.00000001	      0.00000000	      0.00000000
      3.02000000	     11.33160235	      6.04578362	     15.45743642	      0.70241616	      0.89565633	      0.50745255	     -6.51296211	      0.75111691	    -25.99246712	     26.13305155	     -2.84556702	      0.45610779	     22.39490576	      6.71392351	     -7.50367384	     31.16990537	     -7.38107313	      1.47506151	     33.96259932	      6.59152626	      0.59275918	      6.46835977	     12.86099397	     -7.50367384	    -26.22582471	     -6.27487288	     -1.59372678	     -6.59025764	    -28.46297571	    -36.83352053	     76.01990218	     90.00000001	      0.00000000	      0.00000000	     -1.26571531	    -19.32417587	     10.96127414	     87.68437638	     90.00000001	      0.00000000	      0.00000000
      3.03000000	     11.39108706	      5.74419674	     15.21545549	      0.70551381	      0.89478270	      0.50698511	     -6.68882234	      1.09672836	    -25.67260735	     26.14990487	     -2.86289331	      0.45640194	     22.90249950	      6.65473143	     -7.50351757	     31.50963080	     -7.37137079	      1.89509410	     34.03429134	      6.85146211	      0.59401044	      6.41701637	     12.53208479	     -7.50351757	    -25.95279360	     -5.87600697	     -1.58663649	     -6.52944830	    -28.50691975	    -34.86267240	     77.55110544	     90.00000001	      0.00000000	      0.00000000	     -1.98098430	    -19.20342965	     11.03348705	     87.43436070	     90.00000001	      0.00000000	      0.00000000
      3.04000000	     11.44510665	      5.51176250	     14.91505074	      0.70874356	      0.89400119	      0.50654439	     -6.85852588	      1.31282992	    -25.46153509	     26.24267674	     -2.89445361	      0.45802111	     23.07521547	      6.67374319	     -7.50335485	     31.72629272	     -7.30383503	      1.95446577	     34.04557767	      6.86637736	      0.59420743	      6.35905332	     12.41799308	     -7.50335485	    -25.70487948	     -5.59847382	     -1.43850029	     -6.36402962	    -28.37286229	    -33.42472616	     78.38646897	     90.00000001	      0.00000000	      0.00000000	     -2.57209179	    -19.03793435	     11.15917868	     87.21916771	     90.00000001	      0.00000000	      0.00000000
      3.05000000	     11.46977078	      5.29400469	     14.64520602	      0.71204855	      0.89322606	      0.50607155	     -7.03239965	      1.48800557	    -25.27914935	     26.30866829	     -2.88366578	      0.45917288	     23.27551958	      6.70985397	     -7.50327775	     31.90363951	     -7.21762239	      1.92900665	     34.02625123	      6.83307232	      0.59387012	      6.33573621	     12.44643257	     -7.50327775	    -25.45080428	     -5.33931762	     -1.32694589	     -5.97652391	    -27.97264898	    -32.42958017	     79.08512147	     90.00000001	      0.00000000	      0.00000000	     -3.15062086	    -18.89927254	     11.38554371	     86.96155780	     90.00000001	      0.00000000	      0.00000000
